<?xml version="1.0" standalone="no"?>
<!DOCTYPE svg PUBLIC "-//W3C//DTD SVG 20010904//EN"
 "http://www.w3.org/TR/2001/REC-SVG-20010904/DTD/svg10.dtd">
<svg version="1.0" xmlns="http://www.w3.org/2000/svg"
 width="96.000000pt" height="96.000000pt" viewBox="0 0 96.000000 96.000000"
 preserveAspectRatio="xMidYMid meet">
<metadata>
Created by potrace 1.11, written by Peter Selinger 2001-2013
</metadata>
<g transform="translate(0.000000,96.000000) scale(0.100000,-0.100000)"
fill="#000000" stroke="none">
<path d="M310 831 c-113 -36 -182 -126 -186 -241 -5 -109 50 -198 150 -246 81
-38 156 -29 279 34 4 2 7 -6 7 -17 0 -14 37 -58 100 -121 l101 -100 29 30 30
30 -100 100 c-60 60 -108 100 -120 100 -25 0 -25 -2 6 53 92 166 -20 373 -209
383 -34 2 -73 0 -87 -5z m147 -90 c51 -24 91 -80 99 -143 13 -93 -62 -184
-159 -195 -146 -17 -246 152 -164 276 32 48 91 81 147 81 19 0 54 -9 77 -19z"/>
</g>
</svg>
